<svg xmlns="http://www.w3.org/2000/svg" id="svg24" width="100" height="17" version="1.1" viewBox="0 0 100 17"><title id="title32">Sinovac logo</title><g id="g126" transform="matrix(0.50794853,0,0,0.50794853,-21.821505,-1.0331417)"><g id="g124"><polygon id="polygon108" points="80.8 34.4 80.8 30.7 80.8 6.8 80.8 3.1 72.8 3.1 72.8 6.8 72.8 30.7 72.8 34.4" class="st0"/><path id="path110" d="M 150.7 18.8 C 150.7 23.9 149.3 27.9 146.6 30.8 C 143.8 33.7 140 35.1 135.1 35.1 C 130.2 35.1 126.3 33.7 123.6 30.8 C 120.8 27.9 119.5 23.9 119.5 18.8 C 119.5 13.6 120.9 9.6 123.6 6.7 C 126.3 3.8 130.2 2.4 135.2 2.4 C 140.2 2.4 144 3.8 146.8 6.7 C 149.4 9.5 150.7 13.6 150.7 18.8 M 143.1 18.8 C 143.1 15.5 142.4 12.9 141 11 C 139.6 9.1 137.6 8.1 135.1 8.1 C 132.5 8.1 130.6 9.1 129.2 11 C 127.8 12.9 127.1 15.5 127.1 18.8 C 127.1 22.1 127.8 24.6 129.2 26.6 C 130.6 28.5 132.6 29.5 135.1 29.5 C 137.6 29.5 139.6 28.5 141 26.6 C 142.4 24.6 143.1 22 143.1 18.8" class="st0"/><polygon id="polygon112" points="168 25.6 175.4 3.1 183.4 3.1 172.7 34.4 163.4 34.4 152.7 3.1 160.7 3.1" class="st1" style="fill-opacity:1;fill:#4d4d4d"/><path id="path114" d="M 44.1 33.9 L 44.1 27.7 C 47.6 28.8 50.7 29.3 53.4 29.3 C 57.2 29.3 59 28.3 59 26.3 C 59 25.6 58.7 24.9 58.2 24.4 C 57.6 23.9 56.2 23.1 53.9 22.2 C 49.8 20.5 47.1 19 45.8 17.8 C 44.2 16.2 43.4 14.2 43.4 11.8 C 43.4 8.7 44.6 6.3 47 4.7 C 49.3 3.1 52.4 2.3 56.2 2.3 C 58.3 2.3 61.7 2.6 65.5 3.4 L 65.5 8.9 C 62.5 8.1 59.6 7.6 57.1 7.6 C 53.6 7.6 51.8 8.6 51.8 10.5 C 51.8 11.2 52.2 11.8 52.9 12.3 C 53.5 12.7 55.1 13.5 57.8 14.7 C 61.6 16.4 64.2 17.9 65.5 19.1 C 67 20.6 67.8 22.5 67.8 24.9 C 67.8 28.3 66.3 30.9 63.4 32.7 C 61 34.2 57.9 34.9 54.1 34.9 C 50.6 35 47.4 34.7 44.1 33.9 L 44.1 33.9 Z" class="st0"/><polygon id="polygon116" points="86.8 34.4 86.8 3.1 96.8 3.1 107.9 24 107.9 3.1 114.1 3.1 114.1 34.4 104.7 34.4 93 13.1 93 34.4" class="st0"/><polygon id="polygon118" points="196 11.9 188.7 34.4 180.7 34.4 191.4 3.1 200.7 3.1 211.4 34.4 203.4 34.4" class="st1" style="fill-opacity:1;fill:#4d4d4d"/><path id="path120" d="M 238.7 28.3 C 236.3 29 232.6 29.4 231.2 29.4 C 227.9 29.4 225.3 28.4 223.4 26.5 C 221.4 24.6 220.5 22 220.5 18.8 C 220.5 15.6 221.5 13.1 223.4 11.1 C 225.3 9.1 227.8 8.1 231 8.1 C 232.3 8.1 235.3 8.3 238.8 9.5 L 238.8 3.8 C 238 3.5 236.9 3.2 235.7 3 C 234.2 2.7 232.5 2.5 230.6 2.5 C 225.2 2.5 220.9 4 217.7 7 C 214.5 10 212.9 14 212.9 19.1 C 212.9 24.1 214.5 28.1 217.7 30.9 C 220.9 33.8 225.2 35.2 230.8 35.2 C 232.5 35.2 234.1 35.1 235.6 34.8 C 236.8 34.6 237.9 34.4 239 34.1 L 239 28.3 L 238.7 28.3 Z" class="st1" style="fill-opacity:1;fill:#4d4d4d"/></g></g></svg>